<?xml version="1.0" encoding="UTF-8"?>
<svg xmlns="http://www.w3.org/2000/svg" xmlns:se="https://standardebooks.org/vocab/1.0" version="1.1" viewBox="0 0 1400 590" se:generated-from="64596cc9911d7af1c30aa7aacb28373d1f22b3ff">
	<path d="m 58.186393,68.245613 18.339182,0 0,61.754387 17.590643,0 0,-61.754387 18.339182,0 0,-15.438597 -54.269007,0 0,15.438597 z"/>
	<path d="m 141.38084,99.029239 24.88889,0 0,30.970761 17.59064,0 0,-77.192984 -17.59064,0 0,30.783626 -24.88889,0 0,-30.783626 -17.59065,0 0,77.192984 17.59065,0 0,-30.970761 z"/>
	<path d="m 244.22587,52.807016 -44.16374,0 0,77.192984 44.16374,0 0,-15.4386 -26.5731,0 0,-15.532161 25.4503,0 0,-15.438597 -25.4503,0 0,-15.345029 26.5731,0 0,-15.438597 z"/>
	<path d="m 307.51389,52.807016 -17.59065,0 0,77.192984 44.16375,0 0,-15.4386 -26.5731,0 0,-61.754384 z"/>
	<path d="m 388.40424,52.807016 -16.2807,0 L 340.96565,130 l 18.90058,0 5.7076,-15.4386 29.38012,0 5.7076,15.4386 18.90059,0 -31.1579,-77.192984 z m 0.56141,46.31579 -17.40351,0 8.60819,-22.45614 0.18713,0 8.60819,22.45614 z"/>
	<path d="m 427.48173,52.807016 0,77.192984 22.36257,0 c 21.23977,0 38.92398,-16.09357 38.92398,-38.643276 0,-22.45614 -17.77778,-38.549708 -38.92398,-38.549708 l -22.36257,0 z m 17.59064,61.473684 0,-45.754385 2.71345,0 c 13.09942,0 21.98831,10.011696 21.98831,22.923977 -0.0936,12.912278 -8.98246,22.830408 -21.98831,22.830408 l -2.71345,0 z"/>
	<path d="m 484.73319,52.807016 28.44445,42.5731 0,34.619884 17.59064,0 0,-34.619884 28.44445,-42.5731 -21.1462,0 -16.09357,24.701755 -16.09357,-24.701755 -21.1462,0 z"/>
	<path d="m 594.17328,91.356724 c 0,22.549706 16.09356,40.046786 38.92397,40.046786 22.17544,0 38.83041,-17.49708 38.83041,-40.046786 0,-22.549708 -17.40351,-39.953217 -38.83041,-39.953217 -21.23976,0 -38.92397,17.403509 -38.92397,39.953217 z m 18.99415,0 c 0,-11.508772 6.36257,-23.017544 19.92982,-23.017544 13.66082,0 19.83626,11.508772 19.83626,23.017544 0,11.508776 -5.80117,23.017546 -19.83626,23.017546 -14.40935,0 -19.92982,-11.50877 -19.92982,-23.017546 z"/>
	<path d="m 729.32092,52.807016 -44.63158,0 0,77.192984 17.59064,0 0,-30.970761 24.98246,0 0,-15.438597 -24.98246,0 0,-15.345029 27.04094,0 0,-15.438597 z"/>
	<path d="m 763.83697,68.245613 18.33918,0 0,61.754387 17.59064,0 0,-61.754387 18.33918,0 0,-15.438597 -54.269,0 0,15.438597 z"/>
	<path d="m 847.03145,99.029239 24.88889,0 0,30.970761 17.59064,0 0,-77.192984 -17.59064,0 0,30.783626 -24.88889,0 0,-30.783626 -17.59064,0 0,77.192984 17.59064,0 0,-30.970761 z"/>
	<path d="m 949.87646,52.807016 -44.16374,0 0,77.192984 44.16374,0 0,-15.4386 -26.5731,0 0,-15.532161 25.45029,0 0,-15.438597 -25.45029,0 0,-15.345029 26.5731,0 0,-15.438597 z"/>
	<path d="m 995.57386,52.807016 0,77.192984 29.28654,0 c 16,0 25.2632,-8.79532 25.2632,-21.52047 0,-12.444443 -6.8304,-17.777776 -16.4679,-19.461987 6.5497,-3.368421 9.6375,-9.450292 9.6375,-16.561404 0,-14.690058 -10.4796,-19.649123 -23.7661,-19.649123 l -23.95324,0 z m 17.59064,30.222223 0,-16.654971 1.4035,0 c 7.6725,0 11.6959,2.339181 11.6959,7.859649 0,6.456141 -4.1169,8.795322 -11.6959,8.795322 l -1.4035,0 z m 0,33.403511 0,-18.245616 5.5205,0 c 8.3275,0 12.9123,2.526316 12.9123,9.637426 0,6.08187 -4.5848,8.60819 -12.9123,8.60819 l -5.5205,0 z"/>
	<path d="m 1100.2683,52.807016 -16.2807,0 L 1052.8297,130 l 18.9006,0 5.7076,-15.4386 29.3801,0 5.7076,15.4386 18.9006,0 -31.1579,-77.192984 z m 0.5614,46.31579 -17.4035,0 8.6082,-22.45614 0.1871,0 8.6082,22.45614 z"/>
	<path d="m 1139.3458,52.807016 0,77.192984 17.5907,0 0,-30.502925 23.5789,30.502925 22.3626,0 -26.5731,-31.906433 c 9.4503,-2.994152 15.8129,-10.760234 15.8129,-22.362574 0,-15.157895 -10.8538,-22.923977 -25.1696,-22.923977 l -27.6024,0 z m 17.5907,34.245615 0,-20.210527 2.0585,0 c 6.6432,0 14.5965,0.467836 14.5965,10.105263 0,9.637428 -7.9533,10.105264 -14.5965,10.105264 l -2.0585,0 z"/>
	<path d="m 1281.2156,86.771929 -35.6491,0 0,13.567251 17.7778,0 c 0,9.45029 -8.3275,14.87719 -16.7486,14.87719 -10.8538,0 -19.6491,-10.66666 -19.6491,-23.766078 0,-13.380117 8.7953,-24.140352 19.6491,-24.140352 6.8304,0 12.7252,2.713451 17.2164,9.918129 l 11.5088,-12.631579 c -6.7369,-8.140351 -16.1872,-13.192983 -29.7544,-13.192983 -21.7076,0 -37.614,17.871346 -37.614,40.046785 0,22.081868 16.8421,39.953218 37.614,39.953218 15.1579,0 31.4386,-8.32749 35.6491,-27.88304 l 0,-16.748541 z"/>
	<path d="m 1338.0637,52.807016 -44.1638,0 0,77.192984 44.1638,0 0,-15.4386 -26.5731,0 0,-15.532161 25.4502,0 0,-15.438597 -25.4502,0 0,-15.345029 26.5731,0 0,-15.438597 z"/>
	<path d="m 459.96108,290 14.59649,0 16.49123,-57.89474 -14.5965,0 -9.89473,39.7193 -0.35088,0 -10.52632,-39.7193 -9.96491,0 -10.52631,39.7193 -0.35088,0 -9.89474,-39.7193 -14.66666,0 16.49122,57.89474 14.66667,0 9.26316,-32.49123 L 459.96108,290 Z"/>
	<path d="m 502.69024,274.98246 c -4.42105,0 -8,3.57894 -8,8.07017 0,4.42105 3.57895,8 8,8 4.49123,0 8.07017,-3.57895 8.07017,-8 0,-4.49123 -3.57894,-8.07017 -8.07017,-8.07017 z"/>
	<path d="m 586.80318,290 14.59649,0 16.49123,-57.89474 -14.59649,0 -9.89474,39.7193 -0.35088,0 -10.52631,-39.7193 -9.96492,0 -10.52631,39.7193 -0.35088,0 -9.89473,-39.7193 -14.66667,0 L 553.6102,290 l 14.66666,0 9.26316,-32.49123 L 586.80318,290 Z"/>
	<path d="m 629.53233,274.98246 c -4.42105,0 -8,3.57894 -8,8.07017 0,4.42105 3.57895,8 8,8 4.49123,0 8.07018,-3.57895 8.07018,-8 0,-4.49123 -3.57895,-8.07017 -8.07018,-8.07017 z"/>
	<path d="m 700.44791,232.10526 -13.19298,0 0,38.17544 c 0,5.82456 -2.87719,8.14035 -6.66667,8.14035 -3.36842,0 -7.50877,-3.92982 -7.50877,-3.92982 l -4.21053,11.01754 c 0,0 5.26316,5.54386 13.54386,5.54386 11.57895,0 18.03509,-6.03509 18.03509,-17.40351 l 0,-41.54386 z"/>
	<path d="m 742.55318,232.10526 -12.21052,0 L 706.97424,290 l 14.17543,0 4.28071,-11.57895 22.03508,0 4.2807,11.57895 14.17544,0 -23.36842,-57.89474 z m 0.42106,34.73685 -13.05264,0 6.45614,-16.84211 0.14035,0 6.45615,16.84211 z"/>
	<path d="m 801.72531,278.07018 c -13.26316,0 -19.08772,-9.26316 -19.08772,-17.05264 0,-7.71929 5.82456,-16.98245 19.08772,-16.98245 6.73684,0 11.36842,3.57895 11.36842,3.57895 l 5.61403,-11.22807 c 0,0 -6.45614,-5.33334 -19.01754,-5.33334 -16.42105,0 -31.36842,13.47369 -31.36842,30.10527 0,16.5614 15.01754,29.89473 31.36842,29.89473 12.5614,0 19.01754,-5.33333 19.01754,-5.33333 l -5.61403,-11.22807 c 0,0 -4.63158,3.57895 -11.36842,3.57895 z"/>
	<path d="m 826.2275,261.01754 c 0,16.91228 12.07017,30.03509 29.19298,30.03509 16.63158,0 29.12281,-13.12281 29.12281,-30.03509 0,-16.91228 -13.05263,-29.96491 -29.12281,-29.96491 -15.92982,0 -29.19298,13.05263 -29.19298,29.96491 z m 14.24561,0 c 0,-8.63157 4.77193,-17.26315 14.94737,-17.26315 10.24562,0 14.87719,8.63158 14.87719,17.26315 0,8.63158 -4.35087,17.26316 -14.87719,17.26316 -10.80702,0 -14.94737,-8.63158 -14.94737,-17.26316 z"/>
	<path d="m 895.36458,232.10526 0,57.89474 21.96491,0 c 12,0 18.94737,-6.59649 18.94737,-16.14035 0,-9.33333 -5.12281,-13.33333 -12.35088,-14.59649 4.91228,-2.52632 7.22807,-7.08772 7.22807,-12.42105 0,-11.01755 -7.85965,-14.73685 -17.82456,-14.73685 l -17.96491,0 z m 13.19298,22.66667 0,-12.49123 1.05263,0 c 5.75439,0 8.77193,1.75439 8.77193,5.89474 0,4.8421 -3.08772,6.59649 -8.77193,6.59649 l -1.05263,0 z m 0,25.05263 0,-13.68421 4.14035,0 c 6.24562,0 9.68421,1.89474 9.68421,7.22807 0,4.5614 -3.43859,6.45614 -9.68421,6.45614 l -4.14035,0 z"/>
	<path d="m 967.06525,231.05263 c -9.33333,0 -18.87719,6.8772 -18.87719,17.68421 0,6.03509 4.07017,11.4386 11.01754,14.8772 6.8772,3.43859 13.05263,5.33333 13.05263,9.54385 0,5.40351 -5.47368,5.68422 -8.35087,5.68422 -6.45614,0 -14.17544,-6.52632 -14.17544,-6.52632 l -6.59649,11.08772 c 0,0 8.21052,7.64912 21.75438,7.64912 11.29825,0 21.82456,-4.8421 21.82456,-18.66666 0,-7.57895 -7.08771,-13.05264 -13.54385,-15.78948 -6.5965,-2.80702 -12.07018,-5.12281 -12.07018,-8.35088 0,-3.15789 2.38596,-5.19298 6.87719,-5.19298 5.96491,0 11.7193,4 11.7193,4 l 5.33333,-10.52631 c 0,0 -7.43859,-5.47369 -17.96491,-5.47369 z"/>
	<path d="m 594.20663,453.16684 c 0,0.42508 0.34007,0.5101 0.59511,0.5101 0.34007,0 1.02019,0.0425 1.91286,0.0425 0.76515,0 1.02019,0.17003 1.02019,0.89267 0,2.42295 -1.91286,9.05419 -1.91286,12.2848 0,1.82784 0.29756,3.52816 1.5728,3.52816 1.57279,0 3.91073,-2.50797 3.91073,-2.50797 0.46759,-0.5101 1.23273,-1.95537 1.23273,-2.46546 0,-0.29756 -0.17003,-0.46759 -0.42508,-0.46759 -0.59511,0 -1.19022,2.21041 -2.63549,2.21041 -0.42508,0 -0.85016,-0.5526 -0.85016,-1.14771 0,-0.5101 0,-0.42508 1.27524,-8.45909 0.34006,-2.1679 1.14771,-3.82571 1.14771,-4.93092 0,-0.29756 -0.29755,-0.46759 -0.59511,-0.46759 -2.42295,0 -3.14559,0.38257 -4.84591,0.38257 l -0.42507,0 c -0.46759,0 -0.97769,0.0425 -0.97769,0.59511 z m 4.50585,-8.37407 c 0,0.42508 1.14771,2.25293 1.91286,2.25293 0.38257,0 1.87035,-1.40277 1.87035,-2.25293 0,-0.76514 -0.80766,-2.25292 -1.65781,-2.25292 -0.76515,0 -2.1254,1.87035 -2.1254,2.25292 z"/>
	<path d="m 605.93883,466.34431 c 0,3.99575 1.23273,3.99575 2.08289,3.99575 0.80765,0 2.59299,-0.85016 3.6982,-2.12539 1.02019,-1.19023 2.12539,-2.6355 2.12539,-3.06058 0,-0.42508 -0.21254,-0.68013 -0.51009,-0.68013 -1.10521,0 -1.53029,3.01807 -3.86823,3.01807 -0.5526,0 -0.68012,-0.21254 -0.68012,-1.65781 0,-1.44527 0.51009,-4.12327 1.23273,-9.13921 1.36025,-9.13922 0.63762,-7.56642 2.21041,-15.81297 0.12752,-0.80765 0.42508,-1.36025 0.42508,-1.95537 0,-0.42507 -0.21254,-0.68012 -0.89267,-0.68012 -1.1052,0 -2.04038,0.42508 -5.14346,0.63762 -0.5526,0.0425 -0.63762,0.38257 -0.63762,0.59511 0,0.46759 0.38257,0.59511 1.23273,0.59511 0.5101,0 0.59511,-0.0425 1.23273,-0.0425 0.63762,0 1.0627,0.34007 1.0627,0.85016 0,0.5101 -0.63762,4.33581 -1.36025,8.92667 -0.42508,2.72051 -0.63762,5.73858 -1.0202,8.41658 -0.085,0.68013 -1.19022,5.69607 -1.19022,8.11902 z"/>
	<path d="m 617.06396,466.34431 c 0,3.99575 1.23274,3.99575 2.08289,3.99575 0.80766,0 2.59299,-0.85016 3.6982,-2.12539 1.02019,-1.19023 2.1254,-2.6355 2.1254,-3.06058 0,-0.42508 -0.21254,-0.68013 -0.5101,-0.68013 -1.10521,0 -1.53029,3.01807 -3.86822,3.01807 -0.55261,0 -0.68013,-0.21254 -0.68013,-1.65781 0,-1.44527 0.51009,-4.12327 1.23273,-9.13921 1.36025,-9.13922 0.63762,-7.56642 2.21041,-15.81297 0.12753,-0.80765 0.42508,-1.36025 0.42508,-1.95537 0,-0.42507 -0.21254,-0.68012 -0.89266,-0.68012 -1.10521,0 -2.04039,0.42508 -5.14347,0.63762 -0.5526,0.0425 -0.63762,0.38257 -0.63762,0.59511 0,0.46759 0.38257,0.59511 1.23273,0.59511 0.5101,0 0.59511,-0.0425 1.23273,-0.0425 0.63762,0 1.0627,0.34007 1.0627,0.85016 0,0.5101 -0.63762,4.33581 -1.36025,8.92667 -0.42508,2.72051 -0.63762,5.73858 -1.02019,8.41658 -0.085,0.68013 -1.19023,5.69607 -1.19023,8.11902 z"/>
	<path d="m 626.83482,457.50266 c 0,0.29755 0.17003,0.5526 0.42508,0.5526 0.21254,0 0.46759,-0.17003 0.63762,-0.59511 0.59511,-1.36026 1.53029,-2.46546 1.91286,-2.46546 0.5526,0 0.85016,0.42508 0.85016,0.89266 0,2.59299 -1.91286,7.26887 -1.91286,11.85973 0,1.23273 0.29756,2.72051 1.44527,2.72051 3.10308,0 6.24867,-3.86823 8.16153,-6.58874 1.27524,-1.78533 1.48778,-2.72051 1.74283,-2.72051 0.12752,0 0.21254,0.17003 0.21254,0.46759 0,0.38257 -0.76515,3.7407 -0.76515,6.46121 0,1.31775 0.34007,2.29543 1.27524,2.29543 3.99575,0 6.63125,-4.33581 6.63125,-5.356 0,-0.38257 -0.0425,-0.89267 -0.59512,-0.89267 -0.89266,0 -1.06269,3.14559 -3.65568,3.14559 -0.38257,0 -0.93518,-0.085 -0.93518,-1.02019 0,-2.16791 2.59299,-12.45484 2.59299,-13.60255 0,-0.63762 -0.72264,-0.93518 -1.40276,-0.93518 -0.42508,0 -1.10521,0.12753 -1.23273,0.68013 -0.97769,3.7407 -2.16791,7.65144 -4.93093,11.00956 -1.99787,2.38045 -3.48565,4.37833 -4.84591,4.37833 -0.29755,0 -0.76514,-0.42508 -0.76514,-1.14772 0,-3.23061 1.57279,-7.9915 1.57279,-11.7322 0,-0.51009 -0.085,-3.10308 -1.6153,-3.10308 -2.84803,0 -4.8034,3.91073 -4.8034,5.69607 z"/>
	<path d="m 648.95557,467.70457 c 0,2.25292 3.06057,2.80553 4.71838,2.80553 5.44102,0 6.63125,-4.03826 6.63125,-5.56855 0,-2.84803 -1.61531,-4.03826 -2.93305,-5.52603 -1.0202,-1.10521 -3.35813,-2.84804 -3.35813,-4.46334 0,-1.27524 0.63762,-2.25292 2.25292,-2.25292 1.65781,0 1.82784,2.38044 3.35813,2.38044 0.21254,0 1.6153,-0.12752 1.6153,-1.44527 0,-1.65781 -1.65781,-2.21041 -3.95324,-2.21041 -3.31562,0 -5.78108,1.95536 -5.78108,4.8034 0,2.55048 1.6153,3.65568 3.31562,5.39851 1.53028,1.53029 2.93305,2.76302 2.93305,4.76089 0,0.5101 -0.29756,2.72051 -3.40064,2.72051 -2.59299,0 -1.87035,-2.93305 -4.03826,-2.93305 -0.51009,0 -1.36025,0.21254 -1.36025,1.53029 z"/>
	<path d="m 663.74767,453.42189 c 0,1.19023 2.50797,0.25505 2.50797,1.14772 0,1.14771 -1.78533,8.034 -1.78533,11.94474 0,3.31562 1.57279,3.99575 2.72051,3.99575 2.63549,0 6.24867,-2.89055 6.24867,-3.99575 0,-0.59512 -0.34006,-0.59512 -0.46759,-0.59512 -0.68012,0 -1.65781,1.87036 -3.99575,1.87036 -0.17003,0 -1.74282,-0.085 -1.74282,-2.33794 0,-0.68013 0.97768,-6.20617 1.36025,-8.84166 0.25505,-1.74283 0.12753,-2.50797 1.36026,-2.50797 0.93517,0 2.76302,0.21254 3.44314,0.21254 0.76515,0 1.02019,-0.25505 1.02019,-1.23273 0,-0.5101 -0.21254,-0.80765 -1.1052,-0.80765 -0.46759,0 -0.80765,0.0425 -2.46547,0.0425 -1.40276,0 -1.48777,-0.0425 -1.48777,-0.29755 0,-0.63762 0.76514,-2.63549 0.76514,-3.1881 0,-0.38257 -0.21254,-0.51009 -0.42508,-0.51009 -0.68013,0 -0.76514,0.5526 -2.46546,2.33793 -1.87035,1.95537 -3.48566,1.91286 -3.48566,2.76302 z"/>
	<path d="m 675.85515,457.41764 c 0,0.59511 0.34006,0.72264 0.51009,0.72264 0.21254,0 0.34006,-0.12753 0.46759,-0.25505 0.25505,-0.29756 0.59511,-2.84804 2.33794,-2.84804 0.76514,0 1.44527,0.76515 1.44527,2.89055 0,3.18809 -1.82784,9.43677 -1.82784,11.13708 0,1.0202 0.85015,1.10521 1.27523,1.10521 l 0.21254,0 c 1.53029,0 1.44528,0 2.38045,-7.22635 l 0.21254,-1.40277 c 0.21254,-1.78533 1.27524,-7.35387 3.1881,-7.35387 1.53028,0 1.36025,1.78533 2.29543,1.78533 0.76514,0 0.85016,-1.31775 0.93517,-1.6153 0.12753,-0.46759 0.46759,-1.02019 0.46759,-1.5728 0,-0.59511 -0.46759,-1.31774 -1.57279,-1.31774 -3.14559,0 -5.27099,4.37832 -5.56855,4.37832 -0.085,0 -0.12752,-0.0425 -1.19022,-2.80553 -0.25505,-0.68013 -0.68013,-1.48778 -1.5728,-1.48778 -0.38257,0 -3.99574,1.02019 -3.99574,5.8661 z"/>
	<path d="m 689.4464,465.15409 c 0,2.76302 0.5101,5.48353 4.54836,5.48353 4.03825,0 7.56641,-5.10096 7.77895,-5.10096 0.29756,0 -0.085,4.7609 2.6355,4.7609 1.14771,0 3.06057,-1.95537 4.12327,-3.48566 0.5526,-0.76514 0.76514,-1.40276 0.76514,-1.82784 0,-0.17003 -0.0425,-0.46759 -0.38257,-0.46759 -0.80765,0 -1.70032,2.76302 -3.10308,2.76302 -0.80765,0 -1.44527,-1.40276 -1.44527,-2.50797 0,-1.6153 0.42508,-3.57067 0.76514,-5.44102 0.34007,-1.91286 0.59511,-3.86823 0.97769,-5.44102 0.29755,-1.23273 0.85016,-2.25292 0.85016,-2.93305 0,-0.46759 -0.21254,-0.63762 -0.46759,-0.63762 -0.85016,0 -1.36026,2.08289 -2.21042,2.08289 -1.40276,0 -2.29543,-0.46759 -3.61317,-0.46759 -1.10521,0 -1.95537,0.21254 -3.10309,0.76515 -2.25292,1.0627 -4.20828,3.10308 -5.73857,5.52603 -1.31775,2.1254 -2.38045,4.54836 -2.38045,6.9288 z m 2.97556,-0.25505 c 0,-0.76514 0.085,-1.53028 0.21254,-2.29543 0.38257,-2.21041 1.40276,-4.12327 2.63549,-6.16365 1.27524,-2.16791 3.52817,-3.44315 5.27099,-3.44315 0.89267,0 2.80553,0.29756 2.80553,1.48778 0,0.12753 -1.14772,7.94899 -2.16791,9.98937 -0.38257,0.76515 -2.38044,3.82572 -5.44102,3.82572 -1.78533,0 -3.31562,-1.27524 -3.31562,-3.40064 z"/>
	<path d="m 711.32007,453.42189 c 0,1.19023 2.50797,0.25505 2.50797,1.14772 0,1.14771 -1.78534,8.034 -1.78534,11.94474 0,3.31562 1.5728,3.99575 2.72051,3.99575 2.6355,0 6.24868,-2.89055 6.24868,-3.99575 0,-0.59512 -0.34007,-0.59512 -0.46759,-0.59512 -0.68013,0 -1.65781,1.87036 -3.99575,1.87036 -0.17003,0 -1.74283,-0.085 -1.74283,-2.33794 0,-0.68013 0.97769,-6.20617 1.36026,-8.84166 0.25505,-1.74283 0.12752,-2.50797 1.36025,-2.50797 0.93518,0 2.76302,0.21254 3.44315,0.21254 0.76514,0 1.02019,-0.25505 1.02019,-1.23273 0,-0.5101 -0.21254,-0.80765 -1.10521,-0.80765 -0.46759,0 -0.80765,0.0425 -2.46546,0.0425 -1.40276,0 -1.48778,-0.0425 -1.48778,-0.29755 0,-0.63762 0.76514,-2.63549 0.76514,-3.1881 0,-0.38257 -0.21254,-0.51009 -0.42508,-0.51009 -0.68012,0 -0.76514,0.5526 -2.46546,2.33793 -1.87035,1.95537 -3.48565,1.91286 -3.48565,2.76302 z"/>
	<path d="m 723.56901,463.75133 c 0,3.78321 1.31774,6.75877 6.71626,6.75877 3.69819,0 7.39638,-2.97556 7.39638,-3.95325 0,-0.25504 -0.17003,-0.42508 -0.51009,-0.42508 -0.46759,0 -2.16791,1.82785 -4.59086,1.82785 -4.20829,0 -6.12115,-2.1254 -6.12115,-5.3135 0,-1.10521 0.12752,-1.74283 0.72263,-1.74283 3.99575,-0.0425 6.29118,-0.97768 6.67376,-1.14771 0.80765,-0.34006 4.12327,-2.08289 4.12327,-5.14346 0,-1.87036 -1.70032,-3.14559 -3.69819,-3.14559 -2.38045,0 -4.33582,0.76514 -5.90861,2.25292 -2.93305,2.72051 -4.8034,6.37619 -4.8034,10.03188 z m 3.48565,-4.42083 c 0,-0.5526 0.97768,-3.27311 2.25292,-4.59086 1.10521,-1.14772 2.42296,-1.99788 3.48566,-1.99788 0.72263,0 2.25292,0.38258 2.25292,1.99788 0,2.678 -3.48565,5.44102 -7.60893,5.44102 -0.29755,0 -0.38257,-0.5526 -0.38257,-0.85016 z"/>
	<path d="m 740.0342,464.6865 c 0,3.1881 1.48778,5.65356 5.10096,5.65356 4.20829,0 6.37619,-4.76089 6.75876,-4.76089 0.59512,0 -0.38257,4.76089 2.59299,4.76089 2.76302,0 5.44102,-4.2933 5.44102,-5.18597 0,-0.17003 -0.12752,-0.38257 -0.46759,-0.38257 -0.68012,0 -1.65781,2.63549 -3.52816,2.63549 -0.97768,0 -1.10521,-0.89266 -1.10521,-1.82784 0,-1.27524 0.42508,-3.95324 0.89267,-7.18385 2.38045,-17.38575 2.80553,-18.74601 2.80553,-19.85122 0,-0.38257 -0.29756,-0.72263 -0.68013,-0.72263 -1.14771,0 -0.89267,0.085 -3.27311,0.68013 -1.19023,0.29755 -2.67801,0.12752 -2.67801,0.85015 0,0.29756 0.25505,0.46759 0.68013,0.46759 0.0425,0 1.02019,-0.0425 1.48778,-0.0425 0.63762,0 1.23273,0.42508 1.23273,1.0627 0,0.29756 -1.40276,11.47715 -1.53028,11.47715 -1.19023,0 -2.04039,-0.5526 -3.14559,-0.5526 -5.05845,0 -10.58449,6.33369 -10.58449,12.92242 z m 2.97556,-1.19022 c 0,-4.46334 3.48565,-10.83953 7.39639,-10.83953 1.14771,0 2.84803,0.5526 2.84803,1.70032 0,1.70032 -0.63762,9.18172 -2.33794,11.30712 -1.10521,1.40276 -2.76302,2.21041 -4.2933,2.21041 -2.59299,0 -3.61318,-1.91286 -3.61318,-4.37832 z"/>
	<path d="m 771.23638,466.98193 c 0,2.46547 2.678,3.57067 5.18597,3.57067 6.58873,0 11.60467,-7.60892 11.60467,-13.39001 0,-2.76301 -1.48778,-5.39851 -4.67587,-5.39851 -4.88842,0 -6.88629,3.95324 -7.48141,3.95324 -0.085,0 -0.21254,-0.34006 -0.21254,-0.63762 0,-3.06057 2.72051,-15.72795 2.72051,-16.49309 0,-0.46759 -0.34006,-0.76514 -0.80765,-0.76514 -0.25505,0 -1.02019,0.25505 -2.678,0.46759 -1.95537,0.25504 -3.14559,0.21254 -3.14559,1.06269 0,0.59512 0.34006,0.59512 0.80765,0.59512 0.63762,0 1.10521,-0.085 1.74283,-0.085 0.85016,0 1.0627,0.29756 1.0627,0.5101 0,1.02019 -0.25505,2.50797 -0.63762,4.33581 -0.63762,3.14559 -1.14772,7.26886 -1.91286,11.68969 -0.59511,3.44315 -1.57279,7.86397 -1.57279,10.58448 z m 2.80552,-0.51009 c 0,-0.42508 0.46759,-4.97343 1.70032,-8.33156 1.36025,-3.6982 4.12327,-4.12328 5.14346,-4.12328 2.33794,0 4.16579,1.95537 4.16579,4.33582 0,4.88841 -3.91074,11.00956 -7.73646,11.00956 -2.63549,0 -3.27311,-1.44527 -3.27311,-2.89054 z"/>
	<path d="m 789.67222,475.3135 c 0,1.95536 1.70032,2.50797 3.52816,2.50797 3.99575,0 6.71626,-4.84591 8.71413,-9.90436 2.50797,-6.33369 3.52816,-12.19979 3.52816,-14.11265 0,-1.31774 -0.72263,-2.25292 -1.65781,-2.25292 -1.02019,0 -1.44527,0.80765 -1.44527,1.5728 0,1.14771 1.0627,1.99787 1.0627,3.2306 0,2.84804 -0.93517,7.39639 -1.53029,7.39639 -0.46758,0 -4.50584,-12.07226 -8.62911,-12.07226 -2.59299,0 -3.44315,3.69819 -3.44315,5.48352 0,0.72264 0.17003,0.93518 0.42508,0.93518 1.27524,0 0.38257,-3.1881 2.84803,-3.1881 2.25293,0 6.9288,10.96706 6.9288,13.3475 0,1.61531 -2.80552,7.05633 -5.27098,7.05633 -1.95537,0 -1.99788,-1.40277 -3.6982,-1.40277 -0.72263,0 -1.36025,0.68013 -1.36025,1.40277 z"/>
	<path d="m 361.29422,540 8.79532,0 -3.46199,-38.59649 -9.35672,0 -8.56141,22.269 -8.5614,-22.269 -9.35672,0 -3.46199,38.59649 8.79532,0 1.82456,-22.87719 0.23392,0 7.90643,22.64327 5.23977,0 7.90643,-22.64327 0.23392,0 L 361.29422,540 Z"/>
	<path d="m 398.21527,501.40351 -8.14035,0 L 374.49597,540 l 9.4503,0 2.8538,-7.7193 14.69006,0 2.8538,7.7193 9.45029,0 -15.57895,-38.59649 z m 0.28071,23.15789 -8.70176,0 4.30409,-11.22807 0.0936,0 4.3041,11.22807 z"/>
	<path d="m 449.91483,501.40351 -8.79532,0 0,22.31579 c 0,6.45614 -1.96491,8.32748 -6.26901,8.32748 -4.30409,0 -6.269,-1.87134 -6.269,-8.32748 l 0,-22.31579 -8.79532,0 0,24.88889 c 0,9.54386 5.23976,14.40935 15.06432,14.40935 9.82457,0 15.06433,-4.86549 15.06433,-14.40935 l 0,-24.88889 z"/>
	<path d="m 460.06761,501.40351 0,38.59649 8.79532,0 0,-15.25146 11.78948,15.25146 11.18128,0 -13.28655,-15.95322 c 4.72515,-1.49707 7.90644,-5.38011 7.90644,-11.18128 0,-7.57895 -5.4269,-11.46199 -12.5848,-11.46199 l -13.80117,0 z m 8.79532,17.12281 0,-10.10527 1.02924,0 c 3.32164,0 7.29825,0.23392 7.29825,5.05263 0,4.81872 -3.97661,5.05264 -7.29825,5.05264 l -1.02924,0 z"/>
	<path d="m 507.3973,501.40351 -8.79533,0 0,38.59649 8.79533,0 0,-38.59649 z"/>
	<path d="m 537.11513,532.04678 c -8.84211,0 -12.72515,-6.17544 -12.72515,-11.36842 0,-5.1462 3.88304,-11.32164 12.72515,-11.32164 4.49123,0 7.57895,2.38597 7.57895,2.38597 l 3.74269,-7.48538 c 0,0 -4.3041,-3.55556 -12.67837,-3.55556 -10.94736,0 -20.91228,8.98246 -20.91228,20.07018 0,11.04094 10.0117,19.92982 20.91228,19.92982 8.37427,0 12.67837,-3.55555 12.67837,-3.55555 l -3.74269,-7.48538 c 0,0 -3.08772,2.38596 -7.57895,2.38596 z"/>
	<path d="m 578.92947,501.40351 -22.08187,0 0,38.59649 22.08187,0 0,-7.7193 -13.28655,0 0,-7.76608 12.72514,0 0,-7.7193 -12.72514,0 0,-7.67251 13.28655,0 0,-7.7193 z"/>
	<path d="m 641.67872,518.38596 -17.82456,0 0,6.78363 8.88889,0 c 0,4.72515 -4.16374,7.4386 -8.37427,7.4386 -5.4269,0 -9.82456,-5.33334 -9.82456,-11.88304 0,-6.69006 4.39766,-12.07018 9.82456,-12.07018 3.41521,0 6.36257,1.35673 8.60819,4.95906 l 5.75438,-6.31578 c -3.36842,-4.07018 -8.09356,-6.5965 -14.87719,-6.5965 -10.8538,0 -18.80702,8.93568 -18.80702,20.0234 0,11.04093 8.42106,19.9766 18.80702,19.9766 7.57895,0 15.7193,-4.16374 17.82456,-13.94152 l 0,-8.37427 z"/>
	<path d="m 650.52084,501.40351 0,38.59649 8.79533,0 0,-15.25146 11.78947,15.25146 11.18129,0 -13.28655,-15.95322 c 4.72514,-1.49707 7.90643,-5.38011 7.90643,-11.18128 0,-7.57895 -5.4269,-11.46199 -12.5848,-11.46199 l -13.80117,0 z m 8.79533,17.12281 0,-10.10527 1.02923,0 c 3.32164,0 7.29825,0.23392 7.29825,5.05263 0,4.81872 -3.97661,5.05264 -7.29825,5.05264 l -1.02923,0 z"/>
	<path d="m 711.13708,501.40351 -22.08187,0 0,38.59649 22.08187,0 0,-7.7193 -13.28655,0 0,-7.76608 12.72514,0 0,-7.7193 -12.72514,0 0,-7.67251 13.28655,0 0,-7.7193 z"/>
	<path d="m 729.98868,501.40351 -8.79532,0 0,38.59649 8.79532,0 0,-38.59649 z"/>
	<path d="m 762.94628,501.40351 -22.31579,0 0,38.59649 8.79532,0 0,-15.48538 12.49123,0 0,-7.7193 -12.49123,0 0,-7.67251 13.52047,0 0,-7.7193 z"/>
	<path d="m 794.44482,501.40351 -22.31579,0 0,38.59649 8.79532,0 0,-15.48538 12.49123,0 0,-7.7193 -12.49123,0 0,-7.67251 13.52047,0 0,-7.7193 z"/>
	<path d="m 825.70944,501.40351 -22.08188,0 0,38.59649 22.08188,0 0,-7.7193 -13.28655,0 0,-7.76608 12.72514,0 0,-7.7193 -12.72514,0 0,-7.67251 13.28655,0 0,-7.7193 z"/>
	<path d="m 844.56104,516.04678 0.0936,0 15.34502,23.95322 8.79533,0 0,-38.59649 -8.79533,0 0,23.95321 -0.0936,0 -15.34503,-23.95321 -8.79532,0 0,38.59649 8.79532,0 0,-23.95322 z"/>
	<path d="m 888.21234,524.51462 12.44445,0 0,15.48538 8.79532,0 0,-38.59649 -8.79532,0 0,15.39181 -12.44445,0 0,-15.39181 -8.79532,0 0,38.59649 8.79532,0 0,-15.48538 z"/>
	<path d="m 939.65535,501.40351 -8.14035,0 L 915.93605,540 l 9.45029,0 2.8538,-7.7193 14.69006,0 2.8538,7.7193 9.4503,0 -15.57895,-38.59649 z m 0.2807,23.15789 -8.70175,0 4.30409,-11.22807 0.0936,0 4.30409,11.22807 z"/>
	<path d="m 996.59471,518.38596 -17.82456,0 0,6.78363 8.88888,0 c 0,4.72515 -4.16374,7.4386 -8.37426,7.4386 -5.4269,0 -9.82457,-5.33334 -9.82457,-11.88304 0,-6.69006 4.39767,-12.07018 9.82457,-12.07018 3.4152,0 6.36257,1.35673 8.60818,4.95906 l 5.75439,-6.31578 c -3.36842,-4.07018 -8.09357,-6.5965 -14.87719,-6.5965 -10.85381,0 -18.80702,8.93568 -18.80702,20.0234 0,11.04093 8.42105,19.9766 18.80702,19.9766 7.57894,0 15.71929,-4.16374 17.82456,-13.94152 l 0,-8.37427 z"/>
	<path d="m 1027.5187,501.40351 -22.0819,0 0,38.59649 22.0819,0 0,-7.7193 -13.2866,0 0,-7.76608 12.7252,0 0,-7.7193 -12.7252,0 0,-7.67251 13.2866,0 0,-7.7193 z"/>
	<path d="m 1046.3702,516.04678 0.094,0 15.345,23.95322 8.7954,0 0,-38.59649 -8.7954,0 0,23.95321 -0.093,0 -15.3451,-23.95321 -8.7953,0 0,38.59649 8.7953,0 0,-23.95322 z"/>
</svg>
