<?xml version="1.0" encoding="UTF-8"?>
<svg xmlns="http://www.w3.org/2000/svg" xmlns:se="https://standardebooks.org/vocab/1.0" version="1.1" viewBox="0 0 1400 590" se:generated-from="0d9cbc895b3950f3b3f06e633084307f9ede29f0">
	<path d="m 58.169021,66.843806 18.33972,0 0,61.756204 17.59116,0 0,-61.756204 18.339719,0 0,-15.43905 -54.270599,0 0,15.43905 z"/>
	<path d="m 141.36576,97.628336 24.88962,0 0,30.971674 17.59116,0 0,-77.195254 -17.59116,0 0,30.78453 -24.88962,0 0,-30.78453 -17.59116,0 0,77.195254 17.59116,0 0,-30.971674 z"/>
	<path d="m 244.21366,51.404756 -44.16504,0 0,77.195254 44.16504,0 0,-15.43905 -26.57388,0 0,-15.532624 25.45104,0 0,-15.43905 -25.45104,0 0,-15.34548 26.57388,0 0,-15.43905 z"/>
	<path d="m 307.50325,51.404756 -17.59116,0 0,77.195254 44.16504,0 0,-15.43905 -26.57388,0 0,-61.756204 z"/>
	<path d="m 388.39583,51.404756 -16.28118,0 -31.15881,77.195254 18.90114,0 5.70777,-15.43905 29.38098,0 5.70777,15.43905 18.90114,0 -31.15881,-77.195254 z m 0.56142,46.31715 -17.40402,0 8.60844,-22.4568 0.18714,0 8.60844,22.4568 z"/>
	<path d="m 427.4743,51.404756 0,77.195254 22.36323,0 c 21.24039,0 38.92512,-16.09404 38.92512,-38.644414 0,-22.4568 -17.7783,-38.55084 -38.92512,-38.55084 l -22.36323,0 z m 17.59116,61.475494 0,-45.755734 2.71353,0 c 13.0998,0 21.98895,10.01199 21.98895,22.92465 -0.0936,12.912664 -8.98272,22.831084 -21.98895,22.831084 l -2.71353,0 z"/>
	<path d="m 484.72731,51.404756 28.44528,42.57435 0,34.620904 17.59116,0 0,-34.620904 28.44528,-42.57435 -21.14682,0 -16.09404,24.70248 -16.09404,-24.70248 -21.14682,0 z"/>
	<path d="m 594.17029,89.955596 c 0,22.550374 16.09404,40.047964 38.92512,40.047964 22.17609,0 38.83155,-17.49759 38.83155,-40.047964 0,-22.55037 -17.40402,-39.95439 -38.83155,-39.95439 -21.24039,0 -38.92512,17.40402 -38.92512,39.95439 z m 18.99471,0 c 0,-11.50911 6.36276,-23.01822 19.93041,-23.01822 13.66122,0 19.83684,11.50911 19.83684,23.01822 0,11.509114 -5.80134,23.018224 -19.83684,23.018224 -14.40978,0 -19.93041,-11.50911 -19.93041,-23.018224 z"/>
	<path d="m 729.32179,51.404756 -44.63289,0 0,77.195254 17.59116,0 0,-30.971674 24.98319,0 0,-15.43905 -24.98319,0 0,-15.34548 27.04173,0 0,-15.43905 z"/>
	<path d="m 763.83858,66.843806 18.33972,0 0,61.756204 17.59116,0 0,-61.756204 18.33972,0 0,-15.43905 -54.2706,0 0,15.43905 z"/>
	<path d="m 847.03531,97.628336 24.88962,0 0,30.971674 17.59116,0 0,-77.195254 -17.59116,0 0,30.78453 -24.88962,0 0,-30.78453 -17.59116,0 0,77.195254 17.59116,0 0,-30.971674 z"/>
	<path d="m 949.88323,51.404756 -44.16504,0 0,77.195254 44.16504,0 0,-15.43905 -26.57388,0 0,-15.532624 25.45104,0 0,-15.43905 -25.45104,0 0,-15.34548 26.57388,0 0,-15.43905 z"/>
	<path d="m 995.58166,51.404756 0,77.195254 29.28744,0 c 16.0004,0 25.2639,-8.79558 25.2639,-21.5211 0,-12.444814 -6.8306,-17.778304 -16.4684,-19.462564 6.5499,-3.36852 9.6378,-9.45057 9.6378,-16.56189 0,-14.69049 -10.4799,-19.6497 -23.7668,-19.6497 l -23.95394,0 z m 17.59114,30.22311 0,-16.65546 1.4036,0 c 7.6727,0 11.6962,2.33925 11.6962,7.85988 0,6.45633 -4.1171,8.79558 -11.6962,8.79558 l -1.4036,0 z m 0,33.404494 0,-18.246154 5.5206,0 c 8.3278,0 12.9127,2.52639 12.9127,9.637714 0,6.08205 -4.5849,8.60844 -12.9127,8.60844 l -5.5206,0 z"/>
	<path d="m 1100.279,51.404756 -16.2812,0 -31.1588,77.195254 18.9012,0 5.7077,-15.43905 29.381,0 5.7078,15.43905 18.9011,0 -31.1588,-77.195254 z m 0.5614,46.31715 -17.404,0 8.6084,-22.4568 0.1872,0 8.6084,22.4568 z"/>
	<path d="m 1139.3575,51.404756 0,77.195254 17.5912,0 0,-30.503824 23.5796,30.503824 22.3633,0 -26.5739,-31.907374 c 9.4506,-2.99424 15.8133,-10.76055 15.8133,-22.36323 0,-15.15834 -10.8541,-22.92465 -25.1703,-22.92465 l -27.6032,0 z m 17.5912,34.24662 0,-20.21112 2.0585,0 c 6.6435,0 14.597,0.46785 14.597,10.10556 0,9.63771 -7.9535,10.10556 -14.597,10.10556 l -2.0585,0 z"/>
	<path d="m 1281.2314,85.370666 -35.6501,0 0,13.56765 17.7783,0 c 0,9.450574 -8.3278,14.877634 -16.7491,14.877634 -10.8541,0 -19.6497,-10.66698 -19.6497,-23.766784 0,-13.38051 8.7956,-24.14106 19.6497,-24.14106 6.8306,0 12.7256,2.71353 17.2169,9.91842 l 11.5091,-12.63195 c -6.737,-8.14059 -16.1876,-13.19337 -29.7552,-13.19337 -21.7083,0 -37.6152,17.87187 -37.6152,40.04796 0,22.082524 16.8426,39.954394 37.6152,39.954394 15.1583,0 31.4395,-8.32773 35.6501,-27.88386 l 0,-16.749034 z"/>
	<path d="m 1338.0809,51.404756 -44.165,0 0,77.195254 44.165,0 0,-15.43905 -26.5739,0 0,-15.532624 25.4511,0 0,-15.43905 -25.4511,0 0,-15.34548 26.5739,0 0,-15.43905 z"/>
	<path d="m 459.94726,288.95001 14.59744,0 16.4923,-57.8985 -14.59744,0 -9.89538,39.72188 -0.3509,0 -10.527,-39.72188 -9.96556,0 -10.527,39.72188 -0.3509,0 -9.89538,-39.72188 -14.66762,0 16.4923,57.8985 14.66762,0 9.26376,-32.49334 9.26376,32.49334 z"/>
	<path d="m 502.67888,273.93149 c -4.42134,0 -8.00052,3.57918 -8.00052,8.0707 0,4.42134 3.57918,8.00052 8.00052,8.00052 4.49152,0 8.0707,-3.57918 8.0707,-8.00052 0,-4.49152 -3.57918,-8.0707 -8.0707,-8.0707 z"/>
	<path d="m 586.79663,288.95001 14.59744,0 16.4923,-57.8985 -14.59744,0 -9.89538,39.72188 -0.3509,0 -10.527,-39.72188 -9.96556,0 -10.527,39.72188 -0.3509,0 -9.89538,-39.72188 -14.66762,0 16.4923,57.8985 14.66762,0 9.26376,-32.49334 9.26376,32.49334 z"/>
	<path d="m 629.52825,273.93149 c -4.42134,0 -8.00052,3.57918 -8.00052,8.0707 0,4.42134 3.57918,8.00052 8.00052,8.00052 4.49152,0 8.0707,-3.57918 8.0707,-8.00052 0,-4.49152 -3.57918,-8.0707 -8.0707,-8.0707 z"/>
	<path d="m 700.44777,231.05151 -13.19384,0 0,38.17792 c 0,5.82494 -2.87738,8.14088 -6.6671,8.14088 -3.36864,0 -7.50926,-3.93008 -7.50926,-3.93008 l -4.2108,11.01826 c 0,0 5.2635,5.54422 13.54474,5.54422 11.5797,0 18.03626,-6.03548 18.03626,-17.40464 l 0,-41.54656 z"/>
	<path d="m 742.55545,231.05151 -12.21132,0 -23.36994,57.8985 14.17636,0 4.28098,-11.5797 22.03652,0 4.28098,11.5797 14.17636,0 -23.36994,-57.8985 z m 0.42108,34.7391 -13.05348,0 6.45656,-16.8432 0.14036,0 6.45656,16.8432 z"/>
	<path d="m 801.73111,277.01941 c -13.26402,0 -19.08896,-9.26376 -19.08896,-17.05374 0,-7.7198 5.82494,-16.98356 19.08896,-16.98356 6.73728,0 11.36916,3.57918 11.36916,3.57918 l 5.6144,-11.2288 c 0,0 -6.45656,-5.33368 -19.01878,-5.33368 -16.42212,0 -31.37046,13.47456 -31.37046,30.10722 0,16.56248 15.01852,29.89668 31.37046,29.89668 12.56222,0 19.01878,-5.33368 19.01878,-5.33368 l -5.6144,-11.2288 c 0,0 -4.63188,3.57918 -11.36916,3.57918 z"/>
	<path d="m 826.23458,259.96567 c 0,16.91338 12.07096,30.03704 29.19488,30.03704 16.63266,0 29.1247,-13.12366 29.1247,-30.03704 0,-16.91338 -13.05348,-29.96686 -29.1247,-29.96686 -15.93086,0 -29.19488,13.05348 -29.19488,29.96686 z m 14.24654,0 c 0,-8.63214 4.77224,-17.26428 14.94834,-17.26428 10.24628,0 14.87816,8.63214 14.87816,17.26428 0,8.63214 -4.35116,17.26428 -14.87816,17.26428 -10.80772,0 -14.94834,-8.63214 -14.94834,-17.26428 z"/>
	<path d="m 895.37583,231.05151 0,57.8985 21.96634,0 c 12.00078,0 18.9486,-6.59692 18.9486,-16.1414 0,-9.33394 -5.12314,-13.3342 -12.35168,-14.59744 4.9126,-2.52648 7.22854,-7.08818 7.22854,-12.42186 0,-11.01826 -7.86016,-14.7378 -17.82572,-14.7378 l -17.96608,0 z m 13.19384,22.66814 0,-12.49204 1.0527,0 c 5.75476,0 8.7725,1.7545 8.7725,5.89512 0,4.84242 -3.08792,6.59692 -8.7725,6.59692 l -1.0527,0 z m 0,25.05426 0,-13.6851 4.14062,0 c 6.24602,0 9.68484,1.89486 9.68484,7.22854 0,4.5617 -3.43882,6.45656 -9.68484,6.45656 l -4.14062,0 z"/>
	<path d="m 967.08082,229.99881 c -9.33394,0 -18.87842,6.87764 -18.87842,17.68536 0,6.03548 4.07044,11.43934 11.01826,14.87816 6.87764,3.43882 13.05348,5.33368 13.05348,9.54448 0,5.40386 -5.47404,5.68458 -8.35142,5.68458 -6.45656,0 -14.17636,-6.52674 -14.17636,-6.52674 l -6.59692,11.08844 c 0,0 8.21106,7.64962 21.7558,7.64962 11.29898,0 21.82598,-4.84242 21.82598,-18.66788 0,-7.57944 -7.08818,-13.05348 -13.54474,-15.7905 -6.59692,-2.8072 -12.07096,-5.12314 -12.07096,-8.35142 0,-3.1581 2.38612,-5.19332 6.87764,-5.19332 5.9653,0 11.72006,4.00026 11.72006,4.00026 l 5.33368,-10.527 c 0,0 -7.43908,-5.47404 -17.96608,-5.47404 z"/>
	<path d="m 594.20656,455.34682 c 0,0.42508 0.34006,0.5101 0.59511,0.5101 0.34006,0 1.02019,0.0425 1.91286,0.0425 0.76514,0 1.02019,0.17003 1.02019,0.89267 0,2.42295 -1.91286,9.0542 -1.91286,12.28481 0,1.82784 0.29756,3.52816 1.5728,3.52816 1.57279,0 3.91073,-2.50797 3.91073,-2.50797 0.46759,-0.5101 1.23273,-1.95537 1.23273,-2.46546 0,-0.29756 -0.17003,-0.46759 -0.42508,-0.46759 -0.59511,0 -1.19022,2.21041 -2.63549,2.21041 -0.42508,0 -0.85016,-0.5526 -0.85016,-1.14771 0,-0.5101 0,-0.42508 1.27524,-8.45909 0.34006,-2.16791 1.14771,-3.82572 1.14771,-4.93093 0,-0.29756 -0.29755,-0.46759 -0.59511,-0.46759 -2.42295,0 -3.14559,0.38257 -4.84591,0.38257 l -0.42508,0 c -0.46759,0 -0.97768,0.0425 -0.97768,0.59511 z m 4.50584,-8.37407 c 0,0.42508 1.14772,2.25292 1.91286,2.25292 0.38258,0 1.87036,-1.40276 1.87036,-2.25292 0,-0.76514 -0.80766,-2.25292 -1.65782,-2.25292 -0.76514,0 -2.1254,1.87035 -2.1254,2.25292 z"/>
	<path d="m 605.93876,468.5243 c 0,3.99576 1.23274,3.99576 2.0829,3.99576 0.80765,0 2.59298,-0.85016 3.69819,-2.1254 1.02019,-1.19023 2.1254,-2.6355 2.1254,-3.06058 0,-0.42508 -0.21254,-0.68013 -0.51009,-0.68013 -1.10521,0 -1.53029,3.01807 -3.86823,3.01807 -0.55261,0 -0.68013,-0.21254 -0.68013,-1.65781 0,-1.44527 0.5101,-4.12328 1.23273,-9.13922 1.36026,-9.13922 0.63762,-7.56643 2.21042,-15.81298 0.12752,-0.80765 0.42508,-1.36025 0.42508,-1.95536 0,-0.42508 -0.21254,-0.68013 -0.89267,-0.68013 -1.10521,0 -2.04038,0.42508 -5.14347,0.63762 -0.5526,0.0425 -0.63762,0.38257 -0.63762,0.59511 0,0.46759 0.38257,0.59511 1.23273,0.59511 0.5101,0 0.59512,-0.0425 1.23274,-0.0425 0.63762,0 1.0627,0.34007 1.0627,0.85016 0,0.5101 -0.63762,4.33582 -1.36026,8.92668 -0.42508,2.72051 -0.63762,5.73858 -1.02019,8.41659 -0.085,0.68012 -1.19023,5.69607 -1.19023,8.11902 z"/>
	<path d="m 617.0639,468.5243 c 0,3.99576 1.23274,3.99576 2.0829,3.99576 0.80765,0 2.59298,-0.85016 3.69819,-2.1254 1.02019,-1.19023 2.1254,-2.6355 2.1254,-3.06058 0,-0.42508 -0.21254,-0.68013 -0.51009,-0.68013 -1.10521,0 -1.53029,3.01807 -3.86823,3.01807 -0.55261,0 -0.68013,-0.21254 -0.68013,-1.65781 0,-1.44527 0.5101,-4.12328 1.23273,-9.13922 1.36026,-9.13922 0.63762,-7.56643 2.21042,-15.81298 0.12752,-0.80765 0.42508,-1.36025 0.42508,-1.95536 0,-0.42508 -0.21254,-0.68013 -0.89267,-0.68013 -1.10521,0 -2.04038,0.42508 -5.14347,0.63762 -0.5526,0.0425 -0.63762,0.38257 -0.63762,0.59511 0,0.46759 0.38257,0.59511 1.23273,0.59511 0.5101,0 0.59512,-0.0425 1.23274,-0.0425 0.63762,0 1.0627,0.34007 1.0627,0.85016 0,0.5101 -0.63762,4.33582 -1.36026,8.92668 -0.42508,2.72051 -0.63762,5.73858 -1.02019,8.41659 -0.085,0.68012 -1.19023,5.69607 -1.19023,8.11902 z"/>
	<path d="m 626.83477,459.68264 c 0,0.29756 0.17003,0.5526 0.42508,0.5526 0.21254,0 0.46759,-0.17003 0.63762,-0.59511 0.59511,-1.36025 1.53029,-2.46546 1.91286,-2.46546 0.5526,0 0.85016,0.42508 0.85016,0.89267 0,2.59298 -1.91286,7.26886 -1.91286,11.85973 0,1.23273 0.29755,2.72051 1.44527,2.72051 3.10308,0 6.24868,-3.86823 8.16154,-6.58874 1.27524,-1.78534 1.48778,-2.72051 1.74282,-2.72051 0.12753,0 0.21254,0.17003 0.21254,0.46759 0,0.38257 -0.76514,3.7407 -0.76514,6.46121 0,1.31775 0.34006,2.29543 1.27524,2.29543 3.99575,0 6.63125,-4.33581 6.63125,-5.356 0,-0.38258 -0.0425,-0.89267 -0.59511,-0.89267 -0.89267,0 -1.0627,3.14559 -3.65569,3.14559 -0.38257,0 -0.93518,-0.085 -0.93518,-1.02019 0,-2.16791 2.59299,-12.45485 2.59299,-13.60256 0,-0.63762 -0.72264,-0.93518 -1.40276,-0.93518 -0.42508,0 -1.10521,0.12753 -1.23274,0.68013 -0.97768,3.7407 -2.1679,7.65144 -4.93092,11.00957 -1.99788,2.38045 -3.48566,4.37833 -4.84592,4.37833 -0.29755,0 -0.76514,-0.42508 -0.76514,-1.14772 0,-3.23061 1.5728,-7.9915 1.5728,-11.73221 0,-0.51009 -0.085,-3.10308 -1.61531,-3.10308 -2.84803,0 -4.8034,3.91073 -4.8034,5.69607 z"/>
	<path d="m 648.95553,469.88456 c 0,2.25292 3.06058,2.80553 4.71839,2.80553 5.44102,0 6.63125,-4.03826 6.63125,-5.56855 0,-2.84804 -1.61531,-4.03826 -2.93306,-5.52604 -1.02019,-1.10521 -3.35813,-2.84804 -3.35813,-4.46334 0,-1.27524 0.63762,-2.25292 2.25293,-2.25292 1.65781,0 1.82784,2.38044 3.35813,2.38044 0.21254,0 1.6153,-0.12752 1.6153,-1.44527 0,-1.65781 -1.65781,-2.21041 -3.95324,-2.21041 -3.31563,0 -5.78109,1.95536 -5.78109,4.8034 0,2.55048 1.6153,3.65569 3.31562,5.39852 1.53029,1.53028 2.93306,2.76302 2.93306,4.76089 0,0.5101 -0.29756,2.72051 -3.40064,2.72051 -2.59299,0 -1.87036,-2.93305 -4.03826,-2.93305 -0.5101,0 -1.36026,0.21254 -1.36026,1.53029 z"/>
	<path d="m 663.74765,455.60187 c 0,1.19023 2.50797,0.25505 2.50797,1.14772 0,1.14771 -1.78533,8.03401 -1.78533,11.94475 0,3.31562 1.57279,3.99575 2.72051,3.99575 2.6355,0 6.24868,-2.89055 6.24868,-3.99575 0,-0.59512 -0.34007,-0.59512 -0.46759,-0.59512 -0.68013,0 -1.65781,1.87036 -3.99575,1.87036 -0.17004,0 -1.74283,-0.085 -1.74283,-2.33794 0,-0.68013 0.97768,-6.20617 1.36025,-8.84167 0.25505,-1.74283 0.12753,-2.50797 1.36026,-2.50797 0.93518,0 2.76302,0.21254 3.44315,0.21254 0.76514,0 1.02019,-0.25505 1.02019,-1.23273 0,-0.5101 -0.21254,-0.80765 -1.10521,-0.80765 -0.46759,0 -0.80765,0.0425 -2.46546,0.0425 -1.40277,0 -1.48778,-0.0425 -1.48778,-0.29755 0,-0.63762 0.76514,-2.6355 0.76514,-3.1881 0,-0.38257 -0.21254,-0.5101 -0.42508,-0.5101 -0.68013,0 -0.76514,0.55261 -2.46546,2.33794 -1.87035,1.95537 -3.48566,1.91286 -3.48566,2.76302 z"/>
	<path d="m 675.85512,459.59762 c 0,0.59512 0.34007,0.72264 0.5101,0.72264 0.21254,0 0.34006,-0.12752 0.46759,-0.25505 0.25504,-0.29755 0.59511,-2.84803 2.33794,-2.84803 0.76514,0 1.44527,0.76514 1.44527,2.89054 0,3.1881 -1.82785,9.43678 -1.82785,11.1371 0,1.02019 0.85016,1.1052 1.27524,1.1052 l 0.21254,0 c 1.53029,0 1.44528,0 2.38045,-7.22636 l 0.21254,-1.40276 c 0.21254,-1.78534 1.27524,-7.35388 3.1881,-7.35388 1.53029,0 1.36026,1.78533 2.29543,1.78533 0.76515,0 0.85016,-1.31775 0.93518,-1.6153 0.12752,-0.46759 0.46759,-1.02019 0.46759,-1.5728 0,-0.59511 -0.46759,-1.31775 -1.5728,-1.31775 -3.14559,0 -5.27099,4.37833 -5.56855,4.37833 -0.085,0 -0.12752,-0.0425 -1.19022,-2.80553 -0.25505,-0.68013 -0.68013,-1.48778 -1.5728,-1.48778 -0.38257,0 -3.99575,1.02019 -3.99575,5.8661 z"/>
	<path d="m 689.44639,467.33408 c 0,2.76302 0.51009,5.48353 4.54835,5.48353 4.03826,0 7.56643,-5.10096 7.77897,-5.10096 0.29755,0 -0.085,4.7609 2.63549,4.7609 1.14772,0 3.06058,-1.95537 4.12328,-3.48566 0.5526,-0.76514 0.76514,-1.40276 0.76514,-1.82784 0,-0.17003 -0.0425,-0.46759 -0.38257,-0.46759 -0.80765,0 -1.70032,2.76302 -3.10308,2.76302 -0.80765,0 -1.44527,-1.40276 -1.44527,-2.50797 0,-1.61531 0.42508,-3.57067 0.76514,-5.44103 0.34006,-1.91286 0.59511,-3.86822 0.97768,-5.44102 0.29756,-1.23273 0.85016,-2.25292 0.85016,-2.93305 0,-0.46759 -0.21254,-0.63762 -0.46758,-0.63762 -0.85016,0 -1.36026,2.08289 -2.21042,2.08289 -1.40276,0 -2.29543,-0.46759 -3.61318,-0.46759 -1.10521,0 -1.95537,0.21254 -3.10308,0.76515 -2.25293,1.0627 -4.2083,3.10308 -5.73858,5.52604 -1.31775,2.1254 -2.38045,4.54835 -2.38045,6.9288 z m 2.97556,-0.25505 c 0,-0.76514 0.085,-1.53029 0.21254,-2.29543 0.38257,-2.21042 1.40276,-4.12328 2.63549,-6.16366 1.27524,-2.16791 3.52817,-3.44315 5.271,-3.44315 0.89266,0 2.80552,0.29756 2.80552,1.48778 0,0.12753 -1.14771,7.949 -2.1679,9.98938 -0.38258,0.76515 -2.38045,3.82572 -5.44103,3.82572 -1.78533,0 -3.31562,-1.27524 -3.31562,-3.40064 z"/>
	<path d="m 711.32008,455.60187 c 0,1.19023 2.50797,0.25505 2.50797,1.14772 0,1.14771 -1.78534,8.03401 -1.78534,11.94475 0,3.31562 1.5728,3.99575 2.72052,3.99575 2.63549,0 6.24867,-2.89055 6.24867,-3.99575 0,-0.59512 -0.34006,-0.59512 -0.46759,-0.59512 -0.68012,0 -1.65781,1.87036 -3.99575,1.87036 -0.17003,0 -1.74283,-0.085 -1.74283,-2.33794 0,-0.68013 0.97769,-6.20617 1.36026,-8.84167 0.25505,-1.74283 0.12752,-2.50797 1.36026,-2.50797 0.93517,0 2.76302,0.21254 3.44314,0.21254 0.76515,0 1.0202,-0.25505 1.0202,-1.23273 0,-0.5101 -0.21254,-0.80765 -1.10521,-0.80765 -0.46759,0 -0.80765,0.0425 -2.46547,0.0425 -1.40276,0 -1.48778,-0.0425 -1.48778,-0.29755 0,-0.63762 0.76515,-2.6355 0.76515,-3.1881 0,-0.38257 -0.21254,-0.5101 -0.42508,-0.5101 -0.68013,0 -0.76515,0.55261 -2.46547,2.33794 -1.87035,1.95537 -3.48565,1.91286 -3.48565,2.76302 z"/>
	<path d="m 723.56902,465.93132 c 0,3.78321 1.31775,6.75877 6.71627,6.75877 3.69819,0 7.39639,-2.97556 7.39639,-3.95325 0,-0.25504 -0.17003,-0.42508 -0.5101,-0.42508 -0.46758,0 -2.1679,1.82785 -4.59086,1.82785 -4.20829,0 -6.12115,-2.1254 -6.12115,-5.3135 0,-1.10521 0.12752,-1.74283 0.72263,-1.74283 3.99576,-0.0425 6.29119,-0.97768 6.67376,-1.14772 0.80765,-0.34006 4.12327,-2.08289 4.12327,-5.14346 0,-1.87036 -1.70031,-3.1456 -3.69819,-3.1456 -2.38045,0 -4.33582,0.76515 -5.90861,2.25293 -2.93305,2.72051 -4.80341,6.3762 -4.80341,10.03189 z m 3.48566,-4.42084 c 0,-0.5526 0.97768,-3.27311 2.25292,-4.59086 1.10521,-1.14772 2.42296,-1.99788 3.48566,-1.99788 0.72264,0 2.25292,0.38258 2.25292,1.99788 0,2.678 -3.48565,5.44102 -7.60893,5.44102 -0.29755,0 -0.38257,-0.5526 -0.38257,-0.85016 z"/>
	<path d="m 740.03423,466.86649 c 0,3.1881 1.48778,5.65357 5.10096,5.65357 4.20829,0 6.3762,-4.7609 6.75877,-4.7609 0.59512,0 -0.38257,4.7609 2.59299,4.7609 2.76302,0 5.44103,-4.29331 5.44103,-5.18598 0,-0.17003 -0.12753,-0.38257 -0.46759,-0.38257 -0.68013,0 -1.65781,2.63549 -3.52817,2.63549 -0.97768,0 -1.1052,-0.89266 -1.1052,-1.82784 0,-1.27524 0.42508,-3.95324 0.89266,-7.18385 2.38045,-17.38577 2.80553,-18.74603 2.80553,-19.85124 0,-0.38257 -0.29755,-0.72263 -0.68013,-0.72263 -1.14771,0 -0.89266,0.085 -3.27311,0.68013 -1.19023,0.29755 -2.67801,0.12752 -2.67801,0.85016 0,0.29755 0.25505,0.46758 0.68013,0.46758 0.0425,0 1.02019,-0.0425 1.48778,-0.0425 0.63762,0 1.23273,0.42508 1.23273,1.0627 0,0.29755 -1.40276,11.47715 -1.53028,11.47715 -1.19023,0 -2.04039,-0.5526 -3.1456,-0.5526 -5.05845,0 -10.58449,6.33369 -10.58449,12.92243 z m 2.97556,-1.19022 c 0,-4.46334 3.48566,-10.83954 7.39639,-10.83954 1.14772,0 2.84804,0.5526 2.84804,1.70032 0,1.70032 -0.63762,9.18173 -2.33794,11.30713 -1.10521,1.40276 -2.76302,2.21041 -4.29331,2.21041 -2.59299,0 -3.61318,-1.91286 -3.61318,-4.37832 z"/>
	<path d="m 771.23644,469.16192 c 0,2.46547 2.678,3.57068 5.18597,3.57068 6.58874,0 11.60469,-7.60894 11.60469,-13.39002 0,-2.76302 -1.48778,-5.39852 -4.67588,-5.39852 -4.88842,0 -6.8863,3.95324 -7.48141,3.95324 -0.085,0 -0.21254,-0.34006 -0.21254,-0.63762 0,-3.06057 2.72051,-15.72795 2.72051,-16.4931 0,-0.46759 -0.34006,-0.76514 -0.80765,-0.76514 -0.25505,0 -1.02019,0.25505 -2.678,0.46759 -1.95537,0.25504 -3.1456,0.21254 -3.1456,1.0627 0,0.59511 0.34007,0.59511 0.80766,0.59511 0.63762,0 1.1052,-0.085 1.74282,-0.085 0.85016,0 1.0627,0.29756 1.0627,0.5101 0,1.02019 -0.25504,2.50797 -0.63762,4.33581 -0.63762,3.14559 -1.14771,7.26887 -1.91286,11.6897 -0.59511,3.44315 -1.57279,7.86398 -1.57279,10.58449 z m 2.80553,-0.51009 c 0,-0.42508 0.46758,-4.97344 1.70032,-8.33157 1.36025,-3.6982 4.12327,-4.12328 5.14346,-4.12328 2.33794,0 4.16579,1.95537 4.16579,4.33582 0,4.88842 -3.91074,11.00957 -7.73646,11.00957 -2.63549,0 -3.27311,-1.44527 -3.27311,-2.89054 z"/>
	<path d="m 789.67228,477.49349 c 0,1.95537 1.70032,2.50797 3.52816,2.50797 3.99575,0 6.71627,-4.84591 8.71414,-9.90436 2.50797,-6.33369 3.52817,-12.1998 3.52817,-14.11266 0,-1.31774 -0.72264,-2.25292 -1.65782,-2.25292 -1.02019,0 -1.44527,0.80765 -1.44527,1.5728 0,1.14771 1.0627,1.99787 1.0627,3.2306 0,2.84804 -0.93517,7.3964 -1.53029,7.3964 -0.46758,0 -4.50584,-12.07228 -8.62912,-12.07228 -2.59299,0 -3.44315,3.6982 -3.44315,5.48354 0,0.72263 0.17003,0.93517 0.42508,0.93517 1.27524,0 0.38257,-3.1881 2.84804,-3.1881 2.25292,0 6.9288,10.96707 6.9288,13.34751 0,1.61531 -2.80553,7.05633 -5.27099,7.05633 -1.95537,0 -1.99788,-1.40276 -3.6982,-1.40276 -0.72263,0 -1.36025,0.68013 -1.36025,1.40276 z"/>
	<path d="m 361.29191,539.29999 8.7954,0 -3.46202,-38.5968 -9.3568,0 -8.56147,22.26918 -8.56148,-22.26918 -9.3568,0 -3.46201,38.5968 8.79539,0 1.82458,-22.87738 0.23392,0 7.90649,22.64346 5.23981,0 7.9065,-22.64346 0.23392,0 1.82457,22.87738 z"/>
	<path d="m 398.21322,500.70319 -8.14041,0 -15.57908,38.5968 9.45037,0 2.85383,-7.71936 14.69017,0 2.85383,7.71936 9.45037,0 -15.57908,-38.5968 z m 0.28071,23.15808 -8.70183,0 4.30413,-11.22816 0.0936,0 4.30413,11.22816 z"/>
	<path d="m 449.91316,500.70319 -8.79539,0 0,22.31597 c 0,6.45619 -1.96493,8.32755 -6.26905,8.32755 -4.30413,0 -6.26906,-1.87136 -6.26906,-8.32755 l 0,-22.31597 -8.79539,0 0,24.88909 c 0,9.54393 5.23981,14.40947 15.06445,14.40947 9.82464,0 15.06444,-4.86554 15.06444,-14.40947 l 0,-24.88909 z"/>
	<path d="m 460.06598,500.70319 0,38.5968 8.79539,0 0,-15.25159 11.78957,15.25159 11.18138,0 -13.28666,-15.95335 c 4.72518,-1.49708 7.9065,-5.38016 7.9065,-11.18137 0,-7.57901 -5.42695,-11.46208 -12.5849,-11.46208 l -13.80128,0 z m 8.79539,17.12294 0,-10.10534 1.02925,0 c 3.32166,0 7.2983,0.23392 7.2983,5.05267 0,4.81875 -3.97664,5.05267 -7.2983,5.05267 l -1.02925,0 z"/>
	<path d="m 507.39599,500.70319 -8.79539,0 0,38.5968 8.79539,0 0,-38.5968 z"/>
	<path d="m 537.11403,531.34671 c -8.84218,0 -12.72525,-6.17549 -12.72525,-11.36851 0,-5.14624 3.88307,-11.32173 12.72525,-11.32173 4.49126,0 7.57901,2.38598 7.57901,2.38598 l 3.74272,-7.48544 c 0,0 -4.30413,-3.55558 -12.67847,-3.55558 -10.94745,0 -20.91245,8.98253 -20.91245,20.07033 0,11.04103 10.01178,19.92999 20.91245,19.92999 8.37434,0 12.67847,-3.55559 12.67847,-3.55559 l -3.74272,-7.48544 c 0,0 -3.08775,2.38599 -7.57901,2.38599 z"/>
	<path d="m 578.92865,500.70319 -22.08205,0 0,38.5968 22.08205,0 0,-7.71936 -13.28665,0 0,-7.76615 12.72524,0 0,-7.71936 -12.72524,0 0,-7.67257 13.28665,0 0,-7.71936 z"/>
	<path d="m 641.67836,517.68578 -17.8247,0 0,6.78368 8.88896,0 c 0,4.72518 -4.16378,7.43866 -8.37434,7.43866 -5.42694,0 -9.82464,-5.33338 -9.82464,-11.88314 0,-6.69011 4.3977,-12.07027 9.82464,-12.07027 3.41523,0 6.36263,1.35673 8.60826,4.9591 l 5.75443,-6.31584 c -3.36845,-4.07021 -8.09363,-6.59654 -14.87731,-6.59654 -10.85389,0 -18.80717,8.93574 -18.80717,20.02355 0,11.04102 8.42112,19.97677 18.80717,19.97677 7.57901,0 15.71942,-4.16378 17.8247,-13.94163 l 0,-8.37434 z"/>
	<path d="m 650.52048,500.70319 0,38.5968 8.79539,0 0,-15.25159 11.78957,15.25159 11.18137,0 -13.28665,-15.95335 c 4.72518,-1.49708 7.90649,-5.38016 7.90649,-11.18137 0,-7.57901 -5.42694,-11.46208 -12.58489,-11.46208 l -13.80128,0 z m 8.79539,17.12294 0,-10.10534 1.02925,0 c 3.32166,0 7.2983,0.23392 7.2983,5.05267 0,4.81875 -3.97664,5.05267 -7.2983,5.05267 l -1.02925,0 z"/>
	<path d="m 711.13716,500.70319 -22.08204,0 0,38.5968 22.08204,0 0,-7.71936 -13.28665,0 0,-7.76615 12.72525,0 0,-7.71936 -12.72525,0 0,-7.67257 13.28665,0 0,-7.71936 z"/>
	<path d="m 729.98887,500.70319 -8.79539,0 0,38.5968 8.79539,0 0,-38.5968 z"/>
	<path d="m 762.94671,500.70319 -22.31597,0 0,38.5968 8.79539,0 0,-15.48551 12.49133,0 0,-7.71936 -12.49133,0 0,-7.67257 13.52058,0 0,-7.71936 z"/>
	<path d="m 794.44546,500.70319 -22.31597,0 0,38.5968 8.79539,0 0,-15.48551 12.49133,0 0,-7.71936 -12.49133,0 0,-7.67257 13.52058,0 0,-7.71936 z"/>
	<path d="m 825.71028,500.70319 -22.08204,0 0,38.5968 22.08204,0 0,-7.71936 -13.28665,0 0,-7.76615 12.72525,0 0,-7.71936 -12.72525,0 0,-7.67257 13.28665,0 0,-7.71936 z"/>
	<path d="m 844.562,515.34658 0.0936,0 15.34516,23.95341 8.79539,0 0,-38.5968 -8.79539,0 0,23.95341 -0.0936,0 -15.34515,-23.95341 -8.7954,0 0,38.5968 8.7954,0 0,-23.95341 z"/>
	<path d="m 888.21364,523.81448 12.44454,0 0,15.48551 8.79539,0 0,-38.5968 -8.79539,0 0,15.39193 -12.44454,0 0,-15.39193 -8.7954,0 0,38.5968 8.7954,0 0,-15.48551 z"/>
	<path d="m 939.65697,500.70319 -8.14041,0 -15.57908,38.5968 9.45037,0 2.85383,-7.71936 14.69017,0 2.85383,7.71936 9.45036,0 -15.57907,-38.5968 z m 0.28071,23.15808 -8.70183,0 4.30413,-11.22816 0.0936,0 4.30413,11.22816 z"/>
	<path d="m 996.5967,517.68578 -17.82471,0 0,6.78368 8.88896,0 c 0,4.72518 -4.16377,7.43866 -8.37433,7.43866 -5.42695,0 -9.82464,-5.33338 -9.82464,-11.88314 0,-6.69011 4.39769,-12.07027 9.82464,-12.07027 3.41523,0 6.36262,1.35673 8.60825,4.9591 l 5.75443,-6.31584 c -3.36844,-4.07021 -8.09363,-6.59654 -14.87731,-6.59654 -10.85389,0 -18.80717,8.93574 -18.80717,20.02355 0,11.04102 8.42112,19.97677 18.80717,19.97677 7.57901,0 15.71943,-4.16378 17.82471,-13.94163 l 0,-8.37434 z"/>
	<path d="m 1027.5209,500.70319 -22.082,0 0,38.5968 22.082,0 0,-7.71936 -13.2866,0 0,-7.76615 12.7252,0 0,-7.71936 -12.7252,0 0,-7.67257 13.2866,0 0,-7.71936 z"/>
	<path d="m 1046.3726,515.34658 0.094,0 15.3452,23.95341 8.7953,0 0,-38.5968 -8.7953,0 0,23.95341 -0.094,0 -15.3452,-23.95341 -8.7954,0 0,38.5968 8.7954,0 0,-23.95341 z"/>
</svg>
